<svg width="100%" height="100%" viewBox="0 0 512 512" xmlns="http://www.w3.org/2000/svg">
<!-- text: blog -->
    <g transform="matrix(1.61681,0.878702,-0.000540826,0.188584,-1747.79,-1010.01)">
        <g transform="matrix(1,0,0.00359924,1,-0.85592,0)">
            <path d="M1146.67,445.245L1148.75,445.245L1148.75,422.196L1146.67,422.196L1146.67,445.245ZM1146.67,322.318L1148.75,322.318L1148.75,299.27L1146.67,299.27L1146.67,322.318ZM1157.75,353.05L1159.83,353.05L1159.83,330.001L1157.75,330.001L1157.75,353.05ZM1152.21,445.245L1154.29,445.245L1154.29,422.196L1152.21,422.196L1152.21,445.245ZM1157.75,414.513L1159.83,414.513L1159.83,391.465L1157.75,391.465L1157.75,414.513ZM1152.21,322.318L1154.29,322.318L1154.29,299.27L1152.21,299.27L1152.21,322.318ZM1146.67,353.05L1148.75,353.05L1148.75,330.001L1146.67,330.001L1146.67,353.05ZM1146.67,291.587L1148.75,291.587L1148.75,268.538L1146.67,268.538L1146.67,291.587ZM1146.67,260.855L1148.75,260.855L1148.75,237.806L1146.67,237.806L1146.67,260.855ZM1154.98,322.318L1157.06,322.318L1157.06,299.27L1154.98,299.27L1154.98,322.318ZM1149.44,353.05L1151.52,353.05L1151.52,330.001L1149.44,330.001L1149.44,353.05ZM1154.98,445.245L1157.06,445.245L1157.06,422.196L1154.98,422.196L1154.98,445.245ZM1157.75,383.782L1159.83,383.782L1159.83,360.733L1157.75,360.733L1157.75,383.782ZM1146.67,383.782L1148.75,383.782L1148.75,360.733L1146.67,360.733L1146.67,383.782ZM1149.44,445.245L1151.52,445.245L1151.52,422.196L1149.44,422.196L1149.44,445.245ZM1146.67,414.513L1148.75,414.513L1148.75,391.465L1146.67,391.465L1146.67,414.513Z" style="fill-rule:nonzero;"/>
        </g>
        <g transform="matrix(1,0,0.00359924,1,-0.85592,0)">
            <path d="M1163.3,445.245L1165.38,445.245L1165.38,422.196L1163.3,422.196L1163.3,445.245ZM1168.84,414.513L1170.92,414.513L1170.92,391.465L1168.84,391.465L1168.84,414.513ZM1168.84,291.587L1170.92,291.587L1170.92,268.538L1168.84,268.538L1168.84,291.587ZM1166.07,260.855L1168.15,260.855L1168.15,237.806L1166.07,237.806L1166.07,260.855ZM1171.61,445.245L1173.69,445.245L1173.69,422.196L1171.61,422.196L1171.61,445.245ZM1168.84,445.245L1170.92,445.245L1170.92,422.196L1168.84,422.196L1168.84,445.245ZM1168.84,383.782L1170.92,383.782L1170.92,360.733L1168.84,360.733L1168.84,383.782ZM1166.07,445.245L1168.15,445.245L1168.15,422.196L1166.07,422.196L1166.07,445.245ZM1168.84,353.05L1170.92,353.05L1170.92,330.001L1168.84,330.001L1168.84,353.05ZM1174.38,445.245L1176.46,445.245L1176.46,422.196L1174.38,422.196L1174.38,445.245ZM1168.84,260.855L1170.92,260.855L1170.92,237.806L1168.84,237.806L1168.84,260.855ZM1163.3,260.855L1165.38,260.855L1165.38,237.806L1163.3,237.806L1163.3,260.855ZM1168.84,322.318L1170.92,322.318L1170.92,299.27L1168.84,299.27L1168.84,322.318Z" style="fill-rule:nonzero;"/>
        </g>
        <g transform="matrix(1,0,0.00359924,1,-0.85592,0)">
            <path d="M1182.7,445.245L1184.78,445.245L1184.78,422.196L1182.7,422.196L1182.7,445.245ZM1191.01,353.05L1193.09,353.05L1193.09,330.001L1191.01,330.001L1191.01,353.05ZM1182.7,322.318L1184.78,322.318L1184.78,299.27L1182.7,299.27L1182.7,322.318ZM1191.01,383.782L1193.09,383.782L1193.09,360.733L1191.01,360.733L1191.01,383.782ZM1179.92,383.782L1182,383.782L1182,360.733L1179.92,360.733L1179.92,383.782ZM1185.47,322.318L1187.55,322.318L1187.55,299.27L1185.47,299.27L1185.47,322.318ZM1179.92,353.05L1182,353.05L1182,330.001L1179.92,330.001L1179.92,353.05ZM1188.24,322.318L1190.32,322.318L1190.32,299.27L1188.24,299.27L1188.24,322.318ZM1188.24,445.245L1190.32,445.245L1190.32,422.196L1188.24,422.196L1188.24,445.245ZM1179.92,414.513L1182,414.513L1182,391.465L1179.92,391.465L1179.92,414.513ZM1191.01,414.513L1193.09,414.513L1193.09,391.465L1191.01,391.465L1191.01,414.513ZM1185.47,445.245L1187.55,445.245L1187.55,422.196L1185.47,422.196L1185.47,445.245Z" style="fill-rule:nonzero;"/>
        </g>
        <g transform="matrix(1,0,0.00359924,1,-0.85592,0)">
            <path d="M1199.33,445.245L1201.4,445.245L1201.4,422.196L1199.33,422.196L1199.33,445.245ZM1202.1,445.245L1204.18,445.245L1204.18,422.196L1202.1,422.196L1202.1,445.245ZM1204.87,506.708L1206.95,506.708L1206.95,483.659L1204.87,483.659L1204.87,506.708ZM1199.33,322.318L1201.4,322.318L1201.4,299.27L1199.33,299.27L1199.33,322.318ZM1207.64,414.513L1209.72,414.513L1209.72,391.465L1207.64,391.465L1207.64,414.513ZM1207.64,383.782L1209.72,383.782L1209.72,360.733L1207.64,360.733L1207.64,383.782ZM1207.64,353.05L1209.72,353.05L1209.72,330.001L1207.64,330.001L1207.64,353.05ZM1204.87,414.513L1206.95,414.513L1206.95,391.465L1204.87,391.465L1204.87,414.513ZM1207.64,475.977L1209.72,475.977L1209.72,452.928L1207.64,452.928L1207.64,475.977ZM1196.55,383.782L1198.63,383.782L1198.63,360.733L1196.55,360.733L1196.55,383.782ZM1202.1,322.318L1204.18,322.318L1204.18,299.27L1202.1,299.27L1202.1,322.318ZM1207.64,322.318L1209.72,322.318L1209.72,299.27L1207.64,299.27L1207.64,322.318ZM1199.33,506.708L1201.4,506.708L1201.4,483.659L1199.33,483.659L1199.33,506.708ZM1204.87,322.318L1206.95,322.318L1206.95,299.27L1204.87,299.27L1204.87,322.318ZM1196.55,353.05L1198.63,353.05L1198.63,330.001L1196.55,330.001L1196.55,353.05ZM1202.1,506.708L1204.18,506.708L1204.18,483.659L1202.1,483.659L1202.1,506.708ZM1196.55,414.513L1198.63,414.513L1198.63,391.465L1196.55,391.465L1196.55,414.513ZM1207.64,445.245L1209.72,445.245L1209.72,422.196L1207.64,422.196L1207.64,445.245Z" style="fill-rule:nonzero;"/>
        </g>
    </g>
    <!-- text: portfolio -->
    <g transform="matrix(1.61689,0.878746,-0.000540826,0.188584,-1747.88,-941.65)">
        <g transform="matrix(1,-2.57572e-14,0.00359906,1,0.44765,-1.23644e-06)">
            <path d="M1146.67,445.245L1148.75,445.245L1148.75,422.196L1146.67,422.196L1146.67,445.245ZM1146.67,506.708L1148.75,506.708L1148.75,483.659L1146.67,483.659L1146.67,506.708ZM1146.67,475.977L1148.75,475.977L1148.75,452.928L1146.67,452.928L1146.67,475.977ZM1157.75,353.05L1159.83,353.05L1159.83,330.001L1157.75,330.001L1157.75,353.05ZM1154.98,322.318L1157.06,322.318L1157.06,299.27L1154.98,299.27L1154.98,322.318ZM1152.21,322.318L1154.29,322.318L1154.29,299.27L1152.21,299.27L1152.21,322.318ZM1146.67,353.05L1148.75,353.05L1148.75,330.001L1146.67,330.001L1146.67,353.05ZM1146.67,414.513L1148.75,414.513L1148.75,391.465L1146.67,391.465L1146.67,414.513ZM1149.44,353.05L1151.52,353.05L1151.52,330.001L1149.44,330.001L1149.44,353.05ZM1146.67,383.782L1148.75,383.782L1148.75,360.733L1146.67,360.733L1146.67,383.782ZM1157.75,414.513L1159.83,414.513L1159.83,391.465L1157.75,391.465L1157.75,414.513ZM1146.67,322.318L1148.75,322.318L1148.75,299.27L1146.67,299.27L1146.67,322.318ZM1157.75,383.782L1159.83,383.782L1159.83,360.733L1157.75,360.733L1157.75,383.782ZM1152.21,445.245L1154.29,445.245L1154.29,422.196L1152.21,422.196L1152.21,445.245ZM1154.98,445.245L1157.06,445.245L1157.06,422.196L1154.98,422.196L1154.98,445.245ZM1149.44,445.245L1151.52,445.245L1151.52,422.196L1149.44,422.196L1149.44,445.245Z" style="fill-rule:nonzero;"/>
        </g>
        <g transform="matrix(1,-2.57572e-14,0.00359906,1,0.44765,-1.23644e-06)">
            <path d="M1166.07,445.245L1168.15,445.245L1168.15,422.196L1166.07,422.196L1166.07,445.245ZM1174.38,353.05L1176.46,353.05L1176.46,330.001L1174.38,330.001L1174.38,353.05ZM1166.07,322.318L1168.15,322.318L1168.15,299.27L1166.07,299.27L1166.07,322.318ZM1174.38,383.782L1176.46,383.782L1176.46,360.733L1174.38,360.733L1174.38,383.782ZM1163.3,383.782L1165.37,383.782L1165.37,360.733L1163.3,360.733L1163.3,383.782ZM1168.84,322.318L1170.92,322.318L1170.92,299.27L1168.84,299.27L1168.84,322.318ZM1163.3,353.05L1165.37,353.05L1165.37,330.001L1163.3,330.001L1163.3,353.05ZM1171.61,322.318L1173.69,322.318L1173.69,299.27L1171.61,299.27L1171.61,322.318ZM1171.61,445.245L1173.69,445.245L1173.69,422.196L1171.61,422.196L1171.61,445.245ZM1163.3,414.513L1165.37,414.513L1165.37,391.465L1163.3,391.465L1163.3,414.513ZM1174.38,414.513L1176.46,414.513L1176.46,391.465L1174.38,391.465L1174.38,414.513ZM1168.84,445.245L1170.92,445.245L1170.92,422.196L1168.84,422.196L1168.84,445.245Z" style="fill-rule:nonzero;"/>
        </g>
        <g transform="matrix(1,-2.57572e-14,0.00359906,1,0.44765,-1.23644e-06)">
            <path d="M1182.69,445.245L1184.77,445.245L1184.77,422.196L1182.69,422.196L1182.69,445.245ZM1188.24,445.245L1190.32,445.245L1190.32,422.196L1188.24,422.196L1188.24,445.245ZM1182.69,414.513L1184.77,414.513L1184.77,391.465L1182.69,391.465L1182.69,414.513ZM1191.01,322.318L1193.09,322.318L1193.09,299.27L1191.01,299.27L1191.01,322.318ZM1185.47,353.05L1187.55,353.05L1187.55,330.001L1185.47,330.001L1185.47,353.05ZM1185.47,445.245L1187.55,445.245L1187.55,422.196L1185.47,422.196L1185.47,445.245ZM1182.69,322.318L1184.77,322.318L1184.77,299.27L1182.69,299.27L1182.69,322.318ZM1179.92,445.245L1182,445.245L1182,422.196L1179.92,422.196L1179.92,445.245ZM1188.24,322.318L1190.32,322.318L1190.32,299.27L1188.24,299.27L1188.24,322.318ZM1182.69,353.05L1184.77,353.05L1184.77,330.001L1182.69,330.001L1182.69,353.05ZM1182.69,383.782L1184.77,383.782L1184.77,360.733L1182.69,360.733L1182.69,383.782ZM1179.92,322.318L1182,322.318L1182,299.27L1179.92,299.27L1179.92,322.318Z" style="fill-rule:nonzero;"/>
        </g>
        <g transform="matrix(1,-2.57572e-14,0.00359906,1,0.44765,-1.23644e-06)">
            <path d="M1204.87,445.245L1206.94,445.245L1206.94,422.196L1204.87,422.196L1204.87,445.245ZM1202.1,322.318L1204.17,322.318L1204.17,299.27L1202.1,299.27L1202.1,322.318ZM1202.1,291.587L1204.17,291.587L1204.17,268.538L1202.1,268.538L1202.1,291.587ZM1207.64,322.318L1209.72,322.318L1209.72,299.27L1207.64,299.27L1207.64,322.318ZM1204.87,322.318L1206.94,322.318L1206.94,299.27L1204.87,299.27L1204.87,322.318ZM1202.1,383.782L1204.17,383.782L1204.17,360.733L1202.1,360.733L1202.1,383.782ZM1199.32,322.318L1201.4,322.318L1201.4,299.27L1199.32,299.27L1199.32,322.318ZM1207.64,445.245L1209.72,445.245L1209.72,422.196L1207.64,422.196L1207.64,445.245ZM1202.1,353.05L1204.17,353.05L1204.17,330.001L1202.1,330.001L1202.1,353.05ZM1202.1,414.513L1204.17,414.513L1204.17,391.465L1202.1,391.465L1202.1,414.513ZM1196.55,322.318L1198.63,322.318L1198.63,299.27L1196.55,299.27L1196.55,322.318Z" style="fill-rule:nonzero;"/>
        </g>
        <g transform="matrix(1,-2.57572e-14,0.00359906,1,0.44765,-1.23644e-06)">
            <path d="M1218.72,445.245L1220.8,445.245L1220.8,422.196L1218.72,422.196L1218.72,445.245ZM1224.27,322.318L1226.34,322.318L1226.34,299.27L1224.27,299.27L1224.27,322.318ZM1218.72,414.513L1220.8,414.513L1220.8,391.465L1218.72,391.465L1218.72,414.513ZM1218.72,322.318L1220.8,322.318L1220.8,299.27L1218.72,299.27L1218.72,322.318ZM1224.27,260.855L1226.34,260.855L1226.34,237.806L1224.27,237.806L1224.27,260.855ZM1221.49,445.245L1223.57,445.245L1223.57,422.196L1221.49,422.196L1221.49,445.245ZM1221.49,322.318L1223.57,322.318L1223.57,299.27L1221.49,299.27L1221.49,322.318ZM1218.72,383.782L1220.8,383.782L1220.8,360.733L1218.72,360.733L1218.72,383.782ZM1213.18,445.245L1215.26,445.245L1215.26,422.196L1213.18,422.196L1213.18,445.245ZM1215.95,445.245L1218.03,445.245L1218.03,422.196L1215.95,422.196L1215.95,445.245ZM1218.72,353.05L1220.8,353.05L1220.8,330.001L1218.72,330.001L1218.72,353.05ZM1221.49,260.855L1223.57,260.855L1223.57,237.806L1221.49,237.806L1221.49,260.855ZM1224.27,445.245L1226.34,445.245L1226.34,422.196L1224.27,422.196L1224.27,445.245ZM1215.95,322.318L1218.03,322.318L1218.03,299.27L1215.95,299.27L1215.95,322.318ZM1218.72,291.587L1220.8,291.587L1220.8,268.538L1218.72,268.538L1218.72,291.587Z" style="fill-rule:nonzero;"/>
        </g>
        <g transform="matrix(1,-2.57572e-14,0.00359906,1,0.44765,-1.23644e-06)">
            <path d="M1232.58,445.245L1234.66,445.245L1234.66,422.196L1232.58,422.196L1232.58,445.245ZM1240.89,353.05L1242.97,353.05L1242.97,330.001L1240.89,330.001L1240.89,353.05ZM1232.58,322.318L1234.66,322.318L1234.66,299.27L1232.58,299.27L1232.58,322.318ZM1240.89,383.782L1242.97,383.782L1242.97,360.733L1240.89,360.733L1240.89,383.782ZM1229.81,383.782L1231.89,383.782L1231.89,360.733L1229.81,360.733L1229.81,383.782ZM1235.35,322.318L1237.43,322.318L1237.43,299.27L1235.35,299.27L1235.35,322.318ZM1229.81,353.05L1231.89,353.05L1231.89,330.001L1229.81,330.001L1229.81,353.05ZM1238.12,322.318L1240.2,322.318L1240.2,299.27L1238.12,299.27L1238.12,322.318ZM1238.12,445.245L1240.2,445.245L1240.2,422.196L1238.12,422.196L1238.12,445.245ZM1229.81,414.513L1231.89,414.513L1231.89,391.465L1229.81,391.465L1229.81,414.513ZM1240.89,414.513L1242.97,414.513L1242.97,391.465L1240.89,391.465L1240.89,414.513ZM1235.35,445.245L1237.43,445.245L1237.43,422.196L1235.35,422.196L1235.35,445.245Z" style="fill-rule:nonzero;"/>
        </g>
        <g transform="matrix(1,-2.57572e-14,0.00359906,1,0.44765,-1.23644e-06)">
            <path d="M1246.44,445.245L1248.52,445.245L1248.52,422.196L1246.44,422.196L1246.44,445.245ZM1251.98,414.513L1254.06,414.513L1254.06,391.465L1251.98,391.465L1251.98,414.513ZM1251.98,291.587L1254.06,291.587L1254.06,268.538L1251.98,268.538L1251.98,291.587ZM1249.21,260.855L1251.29,260.855L1251.29,237.806L1249.21,237.806L1249.21,260.855ZM1254.75,445.245L1256.83,445.245L1256.83,422.196L1254.75,422.196L1254.75,445.245ZM1251.98,445.245L1254.06,445.245L1254.06,422.196L1251.98,422.196L1251.98,445.245ZM1251.98,383.782L1254.06,383.782L1254.06,360.733L1251.98,360.733L1251.98,383.782ZM1249.21,445.245L1251.29,445.245L1251.29,422.196L1249.21,422.196L1249.21,445.245ZM1251.98,353.05L1254.06,353.05L1254.06,330.001L1251.98,330.001L1251.98,353.05ZM1257.52,445.245L1259.6,445.245L1259.6,422.196L1257.52,422.196L1257.52,445.245ZM1251.98,260.855L1254.06,260.855L1254.06,237.806L1251.98,237.806L1251.98,260.855ZM1246.44,260.855L1248.52,260.855L1248.52,237.806L1246.44,237.806L1246.44,260.855ZM1251.98,322.318L1254.06,322.318L1254.06,299.27L1251.98,299.27L1251.98,322.318Z" style="fill-rule:nonzero;"/>
        </g>
        <g transform="matrix(1,-2.57572e-14,0.00359906,1,0.44765,-1.23644e-06)">
            <path d="M1263.07,445.245L1265.14,445.245L1265.14,422.196L1263.07,422.196L1263.07,445.245ZM1271.38,445.245L1273.46,445.245L1273.46,422.196L1271.38,422.196L1271.38,445.245ZM1265.84,445.245L1267.91,445.245L1267.91,422.196L1265.84,422.196L1265.84,445.245ZM1268.61,353.05L1270.69,353.05L1270.69,330.001L1268.61,330.001L1268.61,353.05ZM1268.61,414.513L1270.69,414.513L1270.69,391.465L1268.61,391.465L1268.61,414.513ZM1274.15,445.245L1276.23,445.245L1276.23,422.196L1274.15,422.196L1274.15,445.245ZM1263.07,322.318L1265.14,322.318L1265.14,299.27L1263.07,299.27L1263.07,322.318ZM1268.61,322.318L1270.69,322.318L1270.69,299.27L1268.61,299.27L1268.61,322.318ZM1268.61,383.782L1270.69,383.782L1270.69,360.733L1268.61,360.733L1268.61,383.782ZM1265.84,322.318L1267.91,322.318L1267.91,299.27L1265.84,299.27L1265.84,322.318ZM1268.61,445.245L1270.69,445.245L1270.69,422.196L1268.61,422.196L1268.61,445.245ZM1268.61,260.855L1270.69,260.855L1270.69,237.806L1268.61,237.806L1268.61,260.855Z" style="fill-rule:nonzero;"/>
        </g>
        <g transform="matrix(1,-2.57572e-14,0.00359906,1,0.44765,-1.23644e-06)">
            <path d="M1282.46,445.245L1284.54,445.245L1284.54,422.196L1282.46,422.196L1282.46,445.245ZM1290.78,353.05L1292.86,353.05L1292.86,330.001L1290.78,330.001L1290.78,353.05ZM1282.46,322.318L1284.54,322.318L1284.54,299.27L1282.46,299.27L1282.46,322.318ZM1290.78,383.782L1292.86,383.782L1292.86,360.733L1290.78,360.733L1290.78,383.782ZM1279.69,383.782L1281.77,383.782L1281.77,360.733L1279.69,360.733L1279.69,383.782ZM1285.24,322.318L1287.31,322.318L1287.31,299.27L1285.24,299.27L1285.24,322.318ZM1279.69,353.05L1281.77,353.05L1281.77,330.001L1279.69,330.001L1279.69,353.05ZM1288.01,322.318L1290.09,322.318L1290.09,299.27L1288.01,299.27L1288.01,322.318ZM1288.01,445.245L1290.09,445.245L1290.09,422.196L1288.01,422.196L1288.01,445.245ZM1279.69,414.513L1281.77,414.513L1281.77,391.465L1279.69,391.465L1279.69,414.513ZM1290.78,414.513L1292.86,414.513L1292.86,391.465L1290.78,391.465L1290.78,414.513ZM1285.24,445.245L1287.31,445.245L1287.31,422.196L1285.24,422.196L1285.24,445.245Z" style="fill-rule:nonzero;"/>
        </g>
    </g>
    <!-- text: resume -->
    <g transform="matrix(1.61681,0.878702,-0.000540826,0.188584,-1747.79,-872.849)">
        <g transform="matrix(1,0,0.00359924,1,1.7578,0)">
            <path d="M1149.44,445.245L1151.52,445.245L1151.52,422.196L1149.44,422.196L1149.44,445.245ZM1154.98,445.245L1157.06,445.245L1157.06,422.196L1154.98,422.196L1154.98,445.245ZM1149.44,414.513L1151.52,414.513L1151.52,391.465L1149.44,391.465L1149.44,414.513ZM1157.75,322.318L1159.83,322.318L1159.83,299.27L1157.75,299.27L1157.75,322.318ZM1152.21,353.05L1154.29,353.05L1154.29,330.001L1152.21,330.001L1152.21,353.05ZM1152.21,445.245L1154.29,445.245L1154.29,422.196L1152.21,422.196L1152.21,445.245ZM1149.44,322.318L1151.52,322.318L1151.52,299.27L1149.44,299.27L1149.44,322.318ZM1146.67,445.245L1148.75,445.245L1148.75,422.196L1146.67,422.196L1146.67,445.245ZM1154.98,322.318L1157.06,322.318L1157.06,299.27L1154.98,299.27L1154.98,322.318ZM1149.44,353.05L1151.52,353.05L1151.52,330.001L1149.44,330.001L1149.44,353.05ZM1149.44,383.782L1151.52,383.782L1151.52,360.733L1149.44,360.733L1149.44,383.782ZM1146.67,322.318L1148.75,322.318L1148.75,299.27L1146.67,299.27L1146.67,322.318Z" style="fill-rule:nonzero;"/>
        </g>
        <g transform="matrix(1,0,0.00359924,1,1.7578,0)">
            <path d="M1166.07,445.245L1168.15,445.245L1168.15,422.196L1166.07,422.196L1166.07,445.245ZM1168.84,322.318L1170.92,322.318L1170.92,299.27L1168.84,299.27L1168.84,322.318ZM1171.61,322.318L1173.69,322.318L1173.69,299.27L1171.61,299.27L1171.61,322.318ZM1166.07,383.782L1168.15,383.782L1168.15,360.733L1166.07,360.733L1166.07,383.782ZM1168.84,445.245L1170.92,445.245L1170.92,422.196L1168.84,422.196L1168.84,445.245ZM1168.84,383.782L1170.92,383.782L1170.92,360.733L1168.84,360.733L1168.84,383.782ZM1166.07,322.318L1168.15,322.318L1168.15,299.27L1166.07,299.27L1166.07,322.318ZM1174.38,353.05L1176.46,353.05L1176.46,330.001L1174.38,330.001L1174.38,353.05ZM1163.3,414.513L1165.38,414.513L1165.38,391.465L1163.3,391.465L1163.3,414.513ZM1163.3,383.782L1165.38,383.782L1165.38,360.733L1163.3,360.733L1163.3,383.782ZM1174.38,445.245L1176.46,445.245L1176.46,422.196L1174.38,422.196L1174.38,445.245ZM1174.38,383.782L1176.46,383.782L1176.46,360.733L1174.38,360.733L1174.38,383.782ZM1171.61,383.782L1173.69,383.782L1173.69,360.733L1171.61,360.733L1171.61,383.782ZM1163.3,353.05L1165.38,353.05L1165.38,330.001L1163.3,330.001L1163.3,353.05ZM1171.61,445.245L1173.69,445.245L1173.69,422.196L1171.61,422.196L1171.61,445.245Z" style="fill-rule:nonzero;"/>
        </g>
        <g transform="matrix(1,0,0.00359924,1,1.7578,0)">
            <path d="M1179.92,445.245L1182,445.245L1182,422.196L1179.92,422.196L1179.92,445.245ZM1182.7,383.782L1184.78,383.782L1184.78,360.733L1182.7,360.733L1182.7,383.782ZM1191.01,322.318L1193.09,322.318L1193.09,299.27L1191.01,299.27L1191.01,322.318ZM1191.01,414.513L1193.09,414.513L1193.09,391.465L1191.01,391.465L1191.01,414.513ZM1188.24,322.318L1190.32,322.318L1190.32,299.27L1188.24,299.27L1188.24,322.318ZM1185.47,445.245L1187.55,445.245L1187.55,422.196L1185.47,422.196L1185.47,445.245ZM1185.47,383.782L1187.55,383.782L1187.55,360.733L1185.47,360.733L1185.47,383.782ZM1182.7,445.245L1184.78,445.245L1184.78,422.196L1182.7,422.196L1182.7,445.245ZM1185.47,322.318L1187.55,322.318L1187.55,299.27L1185.47,299.27L1185.47,322.318ZM1182.7,322.318L1184.78,322.318L1184.78,299.27L1182.7,299.27L1182.7,322.318ZM1179.92,353.05L1182,353.05L1182,330.001L1179.92,330.001L1179.92,353.05ZM1188.24,383.782L1190.32,383.782L1190.32,360.733L1188.24,360.733L1188.24,383.782ZM1188.24,445.245L1190.32,445.245L1190.32,422.196L1188.24,422.196L1188.24,445.245Z" style="fill-rule:nonzero;"/>
        </g>
        <g transform="matrix(1,0,0.00359924,1,1.7578,0)">
            <path d="M1199.33,445.245L1201.4,445.245L1201.4,422.196L1199.33,422.196L1199.33,445.245ZM1196.55,414.513L1198.63,414.513L1198.63,391.465L1196.55,391.465L1196.55,414.513ZM1207.64,322.318L1209.72,322.318L1209.72,299.27L1207.64,299.27L1207.64,322.318ZM1207.64,383.782L1209.72,383.782L1209.72,360.733L1207.64,360.733L1207.64,383.782ZM1207.64,414.513L1209.72,414.513L1209.72,391.465L1207.64,391.465L1207.64,414.513ZM1204.87,414.513L1206.95,414.513L1206.95,391.465L1204.87,391.465L1204.87,414.513ZM1207.64,353.05L1209.72,353.05L1209.72,330.001L1207.64,330.001L1207.64,353.05ZM1196.55,353.05L1198.63,353.05L1198.63,330.001L1196.55,330.001L1196.55,353.05ZM1196.55,383.782L1198.63,383.782L1198.63,360.733L1196.55,360.733L1196.55,383.782ZM1202.1,445.245L1204.18,445.245L1204.18,422.196L1202.1,422.196L1202.1,445.245ZM1207.64,445.245L1209.72,445.245L1209.72,422.196L1207.64,422.196L1207.64,445.245ZM1196.55,322.318L1198.63,322.318L1198.63,299.27L1196.55,299.27L1196.55,322.318Z" style="fill-rule:nonzero;"/>
        </g>
        <g transform="matrix(1,0,0.00359924,1,1.7578,0)">
            <path d="M1213.18,445.245L1215.26,445.245L1215.26,422.196L1213.18,422.196L1213.18,445.245ZM1224.27,322.318L1226.35,322.318L1226.35,299.27L1224.27,299.27L1224.27,322.318ZM1224.27,414.513L1226.35,414.513L1226.35,391.465L1224.27,391.465L1224.27,414.513ZM1213.18,353.05L1215.26,353.05L1215.26,330.001L1213.18,330.001L1213.18,353.05ZM1218.73,445.245L1220.81,445.245L1220.81,422.196L1218.73,422.196L1218.73,445.245ZM1218.73,383.782L1220.81,383.782L1220.81,360.733L1218.73,360.733L1218.73,383.782ZM1221.5,353.05L1223.58,353.05L1223.58,330.001L1221.5,330.001L1221.5,353.05ZM1213.18,322.318L1215.26,322.318L1215.26,299.27L1213.18,299.27L1213.18,322.318ZM1213.18,414.513L1215.26,414.513L1215.26,391.465L1213.18,391.465L1213.18,414.513ZM1218.73,353.05L1220.81,353.05L1220.81,330.001L1218.73,330.001L1218.73,353.05ZM1215.95,353.05L1218.03,353.05L1218.03,330.001L1215.95,330.001L1215.95,353.05ZM1218.73,322.318L1220.81,322.318L1220.81,299.27L1218.73,299.27L1218.73,322.318ZM1224.27,353.05L1226.35,353.05L1226.35,330.001L1224.27,330.001L1224.27,353.05ZM1218.73,414.513L1220.81,414.513L1220.81,391.465L1218.73,391.465L1218.73,414.513ZM1224.27,445.245L1226.35,445.245L1226.35,422.196L1224.27,422.196L1224.27,445.245ZM1213.18,383.782L1215.26,383.782L1215.26,360.733L1213.18,360.733L1213.18,383.782ZM1224.27,383.782L1226.35,383.782L1226.35,360.733L1224.27,360.733L1224.27,383.782Z" style="fill-rule:nonzero;"/>
        </g>
        <g transform="matrix(1,0,0.00359924,1,1.7578,0)">
            <path d="M1232.58,445.245L1234.66,445.245L1234.66,422.196L1232.58,422.196L1232.58,445.245ZM1235.36,322.318L1237.43,322.318L1237.43,299.27L1235.36,299.27L1235.36,322.318ZM1238.13,322.318L1240.21,322.318L1240.21,299.27L1238.13,299.27L1238.13,322.318ZM1232.58,383.782L1234.66,383.782L1234.66,360.733L1232.58,360.733L1232.58,383.782ZM1235.36,445.245L1237.43,445.245L1237.43,422.196L1235.36,422.196L1235.36,445.245ZM1235.36,383.782L1237.43,383.782L1237.43,360.733L1235.36,360.733L1235.36,383.782ZM1232.58,322.318L1234.66,322.318L1234.66,299.27L1232.58,299.27L1232.58,322.318ZM1240.9,353.05L1242.98,353.05L1242.98,330.001L1240.9,330.001L1240.9,353.05ZM1229.81,414.513L1231.89,414.513L1231.89,391.465L1229.81,391.465L1229.81,414.513ZM1229.81,383.782L1231.89,383.782L1231.89,360.733L1229.81,360.733L1229.81,383.782ZM1240.9,445.245L1242.98,445.245L1242.98,422.196L1240.9,422.196L1240.9,445.245ZM1240.9,383.782L1242.98,383.782L1242.98,360.733L1240.9,360.733L1240.9,383.782ZM1238.13,383.782L1240.21,383.782L1240.21,360.733L1238.13,360.733L1238.13,383.782ZM1229.81,353.05L1231.89,353.05L1231.89,330.001L1229.81,330.001L1229.81,353.05ZM1238.13,445.245L1240.21,445.245L1240.21,422.196L1238.13,422.196L1238.13,445.245Z" style="fill-rule:nonzero;"/>
        </g>
    </g>
    <!-- text: about -->
    <g transform="matrix(1.61681,0.878702,-0.000540826,0.188584,-1747.79,-804.529)">
        <g transform="matrix(1,0,0.00359924,1,3.0597,0)">
            <path d="M1149.44,445.245L1151.52,445.245L1151.52,422.196L1149.44,422.196L1149.44,445.245ZM1157.75,445.245L1159.83,445.245L1159.83,422.196L1157.75,422.196L1157.75,445.245ZM1154.98,322.318L1157.06,322.318L1157.06,299.27L1154.98,299.27L1154.98,322.318ZM1152.21,383.782L1154.29,383.782L1154.29,360.733L1152.21,360.733L1152.21,383.782ZM1154.98,445.245L1157.06,445.245L1157.06,422.196L1154.98,422.196L1154.98,445.245ZM1149.44,322.318L1151.52,322.318L1151.52,299.27L1149.44,299.27L1149.44,322.318ZM1154.98,383.782L1157.06,383.782L1157.06,360.733L1154.98,360.733L1154.98,383.782ZM1152.21,322.318L1154.29,322.318L1154.29,299.27L1152.21,299.27L1152.21,322.318ZM1152.21,445.245L1154.29,445.245L1154.29,422.196L1152.21,422.196L1152.21,445.245ZM1157.75,383.782L1159.83,383.782L1159.83,360.733L1157.75,360.733L1157.75,383.782ZM1157.75,414.513L1159.83,414.513L1159.83,391.465L1157.75,391.465L1157.75,414.513ZM1146.67,414.513L1148.75,414.513L1148.75,391.465L1146.67,391.465L1146.67,414.513ZM1149.44,383.782L1151.52,383.782L1151.52,360.733L1149.44,360.733L1149.44,383.782ZM1157.75,353.05L1159.83,353.05L1159.83,330.001L1157.75,330.001L1157.75,353.05Z" style="fill-rule:nonzero;"/>
        </g>
        <g transform="matrix(1,0,0.00359924,1,3.0597,0)">
            <path d="M1163.3,445.245L1165.38,445.245L1165.38,422.196L1163.3,422.196L1163.3,445.245ZM1163.3,322.318L1165.38,322.318L1165.38,299.27L1163.3,299.27L1163.3,322.318ZM1174.38,353.05L1176.46,353.05L1176.46,330.001L1174.38,330.001L1174.38,353.05ZM1168.84,445.245L1170.92,445.245L1170.92,422.196L1168.84,422.196L1168.84,445.245ZM1174.38,414.513L1176.46,414.513L1176.46,391.465L1174.38,391.465L1174.38,414.513ZM1168.84,322.318L1170.92,322.318L1170.92,299.27L1168.84,299.27L1168.84,322.318ZM1163.3,353.05L1165.38,353.05L1165.38,330.001L1163.3,330.001L1163.3,353.05ZM1163.3,291.587L1165.38,291.587L1165.38,268.538L1163.3,268.538L1163.3,291.587ZM1163.3,260.855L1165.38,260.855L1165.38,237.806L1163.3,237.806L1163.3,260.855ZM1171.61,322.318L1173.69,322.318L1173.69,299.27L1171.61,299.27L1171.61,322.318ZM1166.07,353.05L1168.15,353.05L1168.15,330.001L1166.07,330.001L1166.07,353.05ZM1171.61,445.245L1173.69,445.245L1173.69,422.196L1171.61,422.196L1171.61,445.245ZM1174.38,383.782L1176.46,383.782L1176.46,360.733L1174.38,360.733L1174.38,383.782ZM1163.3,383.782L1165.38,383.782L1165.38,360.733L1163.3,360.733L1163.3,383.782ZM1166.07,445.245L1168.15,445.245L1168.15,422.196L1166.07,422.196L1166.07,445.245ZM1163.3,414.513L1165.38,414.513L1165.38,391.465L1163.3,391.465L1163.3,414.513Z" style="fill-rule:nonzero;"/>
        </g>
        <g transform="matrix(1,0,0.00359924,1,3.0597,0)">
            <path d="M1182.7,445.245L1184.78,445.245L1184.78,422.196L1182.7,422.196L1182.7,445.245ZM1191.01,353.05L1193.09,353.05L1193.09,330.001L1191.01,330.001L1191.01,353.05ZM1182.7,322.318L1184.78,322.318L1184.78,299.27L1182.7,299.27L1182.7,322.318ZM1191.01,383.782L1193.09,383.782L1193.09,360.733L1191.01,360.733L1191.01,383.782ZM1179.92,383.782L1182,383.782L1182,360.733L1179.92,360.733L1179.92,383.782ZM1185.47,322.318L1187.55,322.318L1187.55,299.27L1185.47,299.27L1185.47,322.318ZM1179.92,353.05L1182,353.05L1182,330.001L1179.92,330.001L1179.92,353.05ZM1188.24,322.318L1190.32,322.318L1190.32,299.27L1188.24,299.27L1188.24,322.318ZM1188.24,445.245L1190.32,445.245L1190.32,422.196L1188.24,422.196L1188.24,445.245ZM1179.92,414.513L1182,414.513L1182,391.465L1179.92,391.465L1179.92,414.513ZM1191.01,414.513L1193.09,414.513L1193.09,391.465L1191.01,391.465L1191.01,414.513ZM1185.47,445.245L1187.55,445.245L1187.55,422.196L1185.47,422.196L1185.47,445.245Z" style="fill-rule:nonzero;"/>
        </g>
        <g transform="matrix(1,0,0.00359924,1,3.0597,0)">
            <path d="M1199.33,445.245L1201.4,445.245L1201.4,422.196L1199.33,422.196L1199.33,445.245ZM1196.55,414.513L1198.63,414.513L1198.63,391.465L1196.55,391.465L1196.55,414.513ZM1207.64,322.318L1209.72,322.318L1209.72,299.27L1207.64,299.27L1207.64,322.318ZM1207.64,383.782L1209.72,383.782L1209.72,360.733L1207.64,360.733L1207.64,383.782ZM1207.64,414.513L1209.72,414.513L1209.72,391.465L1207.64,391.465L1207.64,414.513ZM1204.87,414.513L1206.95,414.513L1206.95,391.465L1204.87,391.465L1204.87,414.513ZM1207.64,353.05L1209.72,353.05L1209.72,330.001L1207.64,330.001L1207.64,353.05ZM1196.55,353.05L1198.63,353.05L1198.63,330.001L1196.55,330.001L1196.55,353.05ZM1196.55,383.782L1198.63,383.782L1198.63,360.733L1196.55,360.733L1196.55,383.782ZM1202.1,445.245L1204.18,445.245L1204.18,422.196L1202.1,422.196L1202.1,445.245ZM1207.64,445.245L1209.72,445.245L1209.72,422.196L1207.64,422.196L1207.64,445.245ZM1196.55,322.318L1198.63,322.318L1198.63,299.27L1196.55,299.27L1196.55,322.318Z" style="fill-rule:nonzero;"/>
        </g>
        <g transform="matrix(1,0,0.00359924,1,3.0597,0)">
            <path d="M1221.5,445.245L1223.58,445.245L1223.58,422.196L1221.5,422.196L1221.5,445.245ZM1218.73,322.318L1220.81,322.318L1220.81,299.27L1218.73,299.27L1218.73,322.318ZM1218.73,291.587L1220.81,291.587L1220.81,268.538L1218.73,268.538L1218.73,291.587ZM1224.27,322.318L1226.35,322.318L1226.35,299.27L1224.27,299.27L1224.27,322.318ZM1221.5,322.318L1223.58,322.318L1223.58,299.27L1221.5,299.27L1221.5,322.318ZM1218.73,383.782L1220.81,383.782L1220.81,360.733L1218.73,360.733L1218.73,383.782ZM1215.95,322.318L1218.03,322.318L1218.03,299.27L1215.95,299.27L1215.95,322.318ZM1224.27,445.245L1226.35,445.245L1226.35,422.196L1224.27,422.196L1224.27,445.245ZM1218.73,353.05L1220.81,353.05L1220.81,330.001L1218.73,330.001L1218.73,353.05ZM1218.73,414.513L1220.81,414.513L1220.81,391.465L1218.73,391.465L1218.73,414.513ZM1213.18,322.318L1215.26,322.318L1215.26,299.27L1213.18,299.27L1213.18,322.318Z" style="fill-rule:nonzero;"/>
        </g>
    </g>
</svg>
